<?xml version="1.0" encoding="UTF-8" standalone="no"?>
<!-- Created with Inkscape (http://www.inkscape.org/) -->

<svg
   xmlns:dc="http://purl.org/dc/elements/1.1/"
   xmlns:cc="http://creativecommons.org/ns#"
   xmlns:rdf="http://www.w3.org/1999/02/22-rdf-syntax-ns#"
   xmlns:svg="http://www.w3.org/2000/svg"
   xmlns="http://www.w3.org/2000/svg"
   xmlns:xlink="http://www.w3.org/1999/xlink"
   xmlns:sodipodi="http://sodipodi.sourceforge.net/DTD/sodipodi-0.dtd"
   xmlns:inkscape="http://www.inkscape.org/namespaces/inkscape"
   width="210mm"
   height="297mm"
   viewBox="0 0 210 297"
   version="1.1"
   id="svg182"
   inkscape:version="0.92.4 (5da689c313, 2019-01-14)"
   sodipodi:docname="alpaca.svg">
  <defs
     id="defs176">
    <linearGradient
       gradientTransform="rotate(-81.91927,104.62201,145.73057)"
       inkscape:collect="always"
       xlink:href="#linearGradient5282"
       id="linearGradient5284-1"
       x1="73.56929"
       y1="180.18279"
       x2="80.427811"
       y2="190.37614"
       gradientUnits="userSpaceOnUse" />
    <linearGradient
       inkscape:collect="always"
       id="linearGradient5282">
      <stop
         style="stop-color:#4d4d4d;stop-opacity:1"
         offset="0"
         id="stop5278" />
      <stop
         style="stop-color:#d7d7d7;stop-opacity:1"
         offset="1"
         id="stop5280" />
    </linearGradient>
    <linearGradient
       inkscape:collect="always"
       id="linearGradient5396">
      <stop
         style="stop-color:#dfdbd5;stop-opacity:1"
         offset="0"
         id="stop5392" />
      <stop
         style="stop-color:#fcfcfc;stop-opacity:1"
         offset="1"
         id="stop5394" />
    </linearGradient>
    <linearGradient
       inkscape:collect="always"
       xlink:href="#linearGradient5396"
       id="linearGradient5311"
       gradientUnits="userSpaceOnUse"
       x1="28.689409"
       y1="173.39775"
       x2="143.25838"
       y2="173.39775" />
    <linearGradient
       inkscape:collect="always"
       xlink:href="#linearGradient5396"
       id="linearGradient5319"
       x1="32.976635"
       y1="193.57419"
       x2="140.77994"
       y2="195.84204"
       gradientUnits="userSpaceOnUse" />
    <linearGradient
       inkscape:collect="always"
       xlink:href="#linearGradient5396"
       id="linearGradient5327"
       x1="27.215784"
       y1="192.84216"
       x2="138.73392"
       y2="194.35406"
       gradientUnits="userSpaceOnUse" />
    <linearGradient
       inkscape:collect="always"
       xlink:href="#linearGradient5396"
       id="linearGradient5335"
       x1="80.637314"
       y1="190.39005"
       x2="120.14226"
       y2="190.39005"
       gradientUnits="userSpaceOnUse" />
    <linearGradient
       inkscape:collect="always"
       xlink:href="#linearGradient5282"
       id="linearGradient5343"
       x1="113.79812"
       y1="212.54283"
       x2="134.22801"
       y2="212.54283"
       gradientUnits="userSpaceOnUse" />
    <linearGradient
       inkscape:collect="always"
       xlink:href="#linearGradient5282"
       id="linearGradient5351"
       x1="90.812935"
       y1="218.42276"
       x2="111.24283"
       y2="218.42276"
       gradientUnits="userSpaceOnUse"
       gradientTransform="translate(-0.04724702,-0.9921875)" />
    <linearGradient
       inkscape:collect="always"
       xlink:href="#linearGradient5282"
       id="linearGradient5359"
       x1="59.401058"
       y1="206.97073"
       x2="75.324478"
       y2="206.97073"
       gradientUnits="userSpaceOnUse" />
    <linearGradient
       inkscape:collect="always"
       xlink:href="#linearGradient5282"
       id="linearGradient5367"
       x1="36.763538"
       y1="216.6423"
       x2="57.193432"
       y2="216.6423"
       gradientUnits="userSpaceOnUse" />
    <linearGradient
       inkscape:collect="always"
       xlink:href="#linearGradient5396"
       id="linearGradient5388"
       x1="26.764969"
       y1="117.48339"
       x2="140.94162"
       y2="119.18428"
       gradientUnits="userSpaceOnUse" />
    <linearGradient
       inkscape:collect="always"
       xlink:href="#linearGradient5396"
       id="linearGradient5420"
       x1="41.834934"
       y1="83.481956"
       x2="145.86644"
       y2="80.541992"
       gradientUnits="userSpaceOnUse" />
    <linearGradient
       gradientTransform="matrix(-1,0,0,1,218.13103,2.3751195)"
       inkscape:collect="always"
       xlink:href="#linearGradient5396"
       id="linearGradient5420-5"
       x1="-61.951958"
       y1="62.451511"
       x2="168.58435"
       y2="58.35862"
       gradientUnits="userSpaceOnUse" />
  </defs>
  <sodipodi:namedview
     id="base"
     pagecolor="#ffffff"
     bordercolor="#666666"
     borderopacity="1.0"
     inkscape:pageopacity="0.0"
     inkscape:pageshadow="2"
     inkscape:zoom="0.35"
     inkscape:cx="139.40046"
     inkscape:cy="632.9961"
     inkscape:document-units="mm"
     inkscape:current-layer="layer1"
     showgrid="false"
     inkscape:window-width="1366"
     inkscape:window-height="705"
     inkscape:window-x="-8"
     inkscape:window-y="-8"
     inkscape:window-maximized="1" />
  <metadata
     id="metadata179">
    <rdf:RDF>
      <cc:Work
         rdf:about="">
        <dc:format>image/svg+xml</dc:format>
        <dc:type
           rdf:resource="http://purl.org/dc/dcmitype/StillImage" />
        <dc:title></dc:title>
      </cc:Work>
    </rdf:RDF>
  </metadata>
  <g
     inkscape:label="Capa 1"
     inkscape:groupmode="layer"
     id="layer1">
    <path
       style="fill:url(#linearGradient5311);stroke:#242424;stroke-width:2.665;stroke-linecap:butt;stroke-linejoin:miter;stroke-opacity:1;stroke-miterlimit:4;stroke-dasharray:none;fill-opacity:1"
       d="m 34.017856,153.36905 c 3.221781,-5.52166 18.944188,-12.26408 31.277528,-11.90625 11.779386,14.55382 71.909966,9.26041 71.909966,9.26041 8.03972,13.61058 6.7729,32.40295 -10.58333,44.22322 -21.61779,14.72254 -76.475779,13.10069 -87.690472,-0.37798 -11.214694,-13.47867 -10.540495,-31.55589 -4.913692,-41.1994 z"
       id="path4964"
       inkscape:connector-curvature="0"
       sodipodi:nodetypes="sccszs" />
    <g
       id="g5374">
      <path
         sodipodi:nodetypes="ccsccscccscsc"
         inkscape:connector-curvature="0"
         id="path5369"
         d="m 122.36979,167.16517 c 13.72439,2.17135 12.11342,-7.18788 10.29985,-9.63839 6.52621,3.5963 17.45539,0.13595 21.92262,-5.38616 5.4372,-6.72114 4.03828,-8.40997 3.1183,-11.52828 20.4506,-13.83204 -0.60259,-18.14496 -4.6302,-59.436746 C 142.87839,60.42104 121.67252,60.275577 103.94345,60.764881 70.566647,61.686047 60.476191,83.065476 60.476191,83.065476 l -3.401786,28.348214 c -9.07143,11.33929 -7.465028,21.35565 0.377976,25.70238 -4.252237,9.26042 -3.301275,16.59643 2.267857,20.78869 13.448907,10.12391 29.104167,1.88988 29.104167,1.88988 0,0 -1.849039,7.44085 7.559521,9.07143 11.013404,1.90871 11.339284,-1.88988 11.339284,-1.88988"
         style="fill:url(#linearGradient5388);stroke:#000000;stroke-width:2.665;stroke-linecap:butt;stroke-linejoin:miter;stroke-opacity:1;fill-opacity:1;stroke-miterlimit:4;stroke-dasharray:none" />
    </g>
    <path
       style="fill:url(#linearGradient5343);stroke:#000000;stroke-width:2.66499996;stroke-linecap:butt;stroke-linejoin:miter;stroke-miterlimit:4;stroke-dasharray:none;stroke-opacity:1;fill-opacity:1.0"
       d="m 117.43869,208.92821 c -3.42037,2.60119 -4.13004,7.69697 5.57515,7.37054 10.21205,-0.34348 12.32934,-4.40477 7.27604,-7.74851"
       id="path5272-7"
       inkscape:connector-curvature="0"
       sodipodi:nodetypes="csc" />
    <g
       id="g5270"
       transform="translate(23.8125,2.2678572)">
      <path
         sodipodi:nodetypes="csc"
         inkscape:connector-curvature="0"
         id="path4970-7"
         d="m 117.20086,173.21414 c 6.67103,24.50853 -8.80534,33.83257 -18.304019,34.34806 -7.69669,0.41768 -17.48366,-5.13552 -16.90283,-18.78159"
         style="fill:url(#linearGradient5335);fill-opacity:1.0;stroke:#000000;stroke-width:2.66499996;stroke-linecap:round;stroke-linejoin:miter;stroke-miterlimit:4;stroke-dasharray:none;stroke-opacity:1" />
    </g>
    <path
       style="fill:url(#linearGradient5359);stroke:#000000;stroke-width:2.66499996;stroke-linecap:butt;stroke-linejoin:miter;stroke-miterlimit:4;stroke-dasharray:none;stroke-opacity:1;fill-opacity:1.0"
       d="m 63.069487,203.80932 c -3.420372,2.60119 -4.229213,6.17327 5.480656,6.04762 4.636895,-0.06 7.132162,-2.42039 4.157737,-4.81919"
       id="path5272-0"
       inkscape:connector-curvature="0"
       sodipodi:nodetypes="csc" />
    <path
       style="fill:url(#linearGradient5367);stroke:#000000;stroke-width:2.66499996;stroke-linecap:butt;stroke-linejoin:miter;stroke-miterlimit:4;stroke-dasharray:none;stroke-opacity:1;fill-opacity:1.0"
       d="m 40.404113,213.02769 c -3.420372,2.60119 -4.130043,7.69697 5.57515,7.37054 10.212044,-0.34348 12.329335,-4.40477 7.276041,-7.74851"
       id="path5272"
       inkscape:connector-curvature="0"
       sodipodi:nodetypes="csc" />
    <path
       style="fill:url(#linearGradient5327);stroke:#000000;stroke-width:2.665;stroke-linecap:round;stroke-linejoin:miter;stroke-opacity:1;stroke-miterlimit:4;stroke-dasharray:none;fill-opacity:1"
       d="m 34.223536,171.05334 c -13.316549,21.08459 -0.511175,43.60402 10.75428,43.5937 16.075477,-0.0147 18.803066,-13.38595 20.22864,-32.81907"
       id="path4968"
       inkscape:connector-curvature="0"
       sodipodi:nodetypes="csc" />
    <path
       style="fill:url(#linearGradient5351);fill-opacity:1;stroke:#000000;stroke-width:2.66499996;stroke-linecap:butt;stroke-linejoin:miter;stroke-miterlimit:4;stroke-dasharray:none;stroke-opacity:1"
       d="m 94.406264,213.81595 c -3.42037,2.60119 -4.13004,7.69697 5.575149,7.37054 10.212037,-0.34348 12.329327,-4.40477 7.276037,-7.74851"
       id="path5272-4"
       inkscape:connector-curvature="0"
       sodipodi:nodetypes="csc" />
    <path
       style="fill:url(#linearGradient5319);fill-opacity:1;stroke:#000000;stroke-width:2.66499996;stroke-linecap:round;stroke-linejoin:miter;stroke-miterlimit:4;stroke-dasharray:none;stroke-opacity:1"
       d="m 123.57021,179.40141 c -2.77837,24.84214 -9.93926,36.94295 -27.375442,35.85996 -7.69319,-0.47783 -13.325919,-9.29325 -15.768895,-22.18337"
       id="path4970"
       inkscape:connector-curvature="0"
       sodipodi:nodetypes="csc" />
    <path
       style="fill:#ffffff;stroke:#000000;stroke-width:1.765;stroke-linecap:butt;stroke-linejoin:miter;stroke-opacity:1;stroke-miterlimit:4;stroke-dasharray:none;fill-opacity:1"
       d="m 96.025391,84.513672 c -7.255765,1.75819 -13.110195,6.906207 -15.191407,14.158203 -1.754751,4.965245 -3.89245,11.128605 -2.191406,16.029295 4.070806,3.13582 5.370807,9.61009 2.470703,13.92774 3.728451,2.83161 5.466002,8.21265 3.638672,12.59961 10.942303,-2.10733 21.131917,3.09669 30.361327,8.23242 5.46971,-6.98581 14.29772,-10.71149 23.10938,-9.31055 4.97991,1.13156 5.53498,-5.46602 9.75195,-6.69922 -3.21578,-11.98665 -7.43143,-25.10908 -2.52344,-37.277342 -6.45213,-1.167705 -12.33485,-4.848829 -16.98242,-9.115234 3.48898,8.092041 -0.45181,19.233396 -9.69922,21.007816 -8.39012,2.42504 -20.782022,1.92112 -24.246092,-7.73829 -1.83242,-5.436759 -0.0555,-11.349084 2.61914,-16.183589 l -0.94951,0.313737 z"
       id="path5371"
       inkscape:connector-curvature="0" />
    <g
       id="g5380"
       transform="translate(1.5119082,-2.2678571)">
      <ellipse
         ry="7.7786746"
         rx="4.3214855"
         cy="125.40479"
         cx="95.409203"
         id="path4534"
         style="fill:#120903;fill-opacity:1;stroke:#000000;stroke-width:1.08099997;stroke-miterlimit:4;stroke-dasharray:none;stroke-opacity:1" />
      <ellipse
         ry="7.7786746"
         rx="4.3214855"
         cy="125.35534"
         cx="132.72227"
         id="path4534-5"
         style="fill:#000000;fill-opacity:1;stroke:#000000;stroke-width:1.08099997;stroke-miterlimit:4;stroke-dasharray:none;stroke-opacity:1" />
      <path
         sodipodi:nodetypes="ccc"
         inkscape:connector-curvature="0"
         id="path5171"
         d="m 122.78456,133.97836 c -2.45827,2.81919 -6.45306,0.40719 -6.45306,0.40719 0,0 -4.39271,2.53726 -6.72857,-1.2329"
         style="fill:none;stroke:#000000;stroke-width:1.36500001;stroke-linecap:butt;stroke-linejoin:miter;stroke-miterlimit:4;stroke-dasharray:none;stroke-opacity:1" />
      <path
         transform="matrix(1.5786152,0,0,1,-67.319316,0)"
         inkscape:transform-center-x="1.1681091e-05"
         inkscape:transform-center-y="-2.6121014e-06"
         d="m 116.36672,133.1844 c -0.0918,0.003 -0.44775,-0.56905 -0.40446,-0.65009 0.0433,-0.081 0.7167,-0.10324 0.76523,-0.0252 0.0485,0.078 -0.26894,0.67229 -0.36077,0.67531 z"
         inkscape:randomized="0"
         inkscape:rounded="0.12"
         inkscape:flatsided="true"
         sodipodi:arg2="2.5850481"
         sodipodi:arg1="1.5378505"
         sodipodi:r2="2.1050019"
         sodipodi:r1="0.4420453"
         sodipodi:cy="132.7426"
         sodipodi:cx="116.35216"
         sodipodi:sides="3"
         id="path1255"
         style="opacity:1;fill:#171512;fill-opacity:1;stroke:#000000;stroke-width:1.08040369;stroke-miterlimit:4;stroke-dasharray:none;stroke-opacity:1"
         sodipodi:type="star" />
    </g>
    <path
       style="fill:url(#linearGradient5420);stroke:#000000;stroke-width:1.665;stroke-linecap:butt;stroke-linejoin:miter;stroke-opacity:1;stroke-miterlimit:4;stroke-dasharray:none;fill-opacity:1"
       d="m 71.24851,76.450893 c -15.067432,-3.929895 -10.772319,6.614583 -28.086506,4.04703 -3.251387,8.239776 9.939574,11.823763 17.503175,10.694039 7.563602,-1.129723 17.764879,-12.473214 17.764879,-12.473214"
       id="path5412"
       inkscape:connector-curvature="0"
       sodipodi:nodetypes="cczc" />
    <path
       style="fill:url(#linearGradient5420-5);fill-opacity:1;stroke:#000000;stroke-width:1.66499996;stroke-linecap:butt;stroke-linejoin:miter;stroke-miterlimit:4;stroke-dasharray:none;stroke-opacity:1"
       d="m 146.88251,78.826014 c 15.06743,-3.929895 10.77232,6.614583 28.08651,4.04703 3.25138,8.239776 -9.93958,11.823763 -17.50318,10.694039 -7.5636,-1.129723 -17.76488,-12.473214 -17.76488,-12.473214"
       id="path5412-4"
       inkscape:connector-curvature="0"
       sodipodi:nodetypes="cczc" />
  </g>
</svg>
