<?xml version="1.0" encoding="UTF-8" standalone="no"?>
<!-- Created with Inkscape (http://www.inkscape.org/) -->

<svg
   xmlns:dc="http://purl.org/dc/elements/1.1/"
   xmlns:cc="http://creativecommons.org/ns#"
   xmlns:rdf="http://www.w3.org/1999/02/22-rdf-syntax-ns#"
   xmlns:svg="http://www.w3.org/2000/svg"
   xmlns="http://www.w3.org/2000/svg"
   xmlns:xlink="http://www.w3.org/1999/xlink"
   xmlns:sodipodi="http://sodipodi.sourceforge.net/DTD/sodipodi-0.dtd"
   xmlns:inkscape="http://www.inkscape.org/namespaces/inkscape"
   width="210mm"
   height="297mm"
   viewBox="0 0 210 297"
   version="1.1"
   id="svg4563"
   inkscape:version="0.92.4 (5da689c313, 2019-01-14)"
   sodipodi:docname="clericCombat.svg">
  <defs
     id="defs4557">
    <linearGradient
       inkscape:collect="always"
       id="linearGradient1027">
      <stop
         style="stop-color:#ffff1b;stop-opacity:1"
         offset="0"
         id="stop1023" />
      <stop
         style="stop-color:#f2d9ad;stop-opacity:0;"
         offset="1"
         id="stop1025" />
    </linearGradient>
    <linearGradient
       inkscape:collect="always"
       id="linearGradient968">
      <stop
         style="stop-color:#ebedf9;stop-opacity:1"
         offset="0"
         id="stop964" />
      <stop
         style="stop-color:#010ee0;stop-opacity:1"
         offset="1"
         id="stop966" />
    </linearGradient>
    <linearGradient
       inkscape:collect="always"
       id="linearGradient5396">
      <stop
         style="stop-color:#eac88c;stop-opacity:1;"
         offset="0"
         id="stop5392" />
      <stop
         style="stop-color:#f2d9ad;stop-opacity:1"
         offset="1"
         id="stop5394" />
    </linearGradient>
    <linearGradient
       inkscape:collect="always"
       id="linearGradient5282">
      <stop
         style="stop-color:#4d4d4d;stop-opacity:1"
         offset="0"
         id="stop5278" />
      <stop
         style="stop-color:#d7d7d7;stop-opacity:1"
         offset="1"
         id="stop5280" />
    </linearGradient>
    <linearGradient
       inkscape:collect="always"
       id="linearGradient5270">
      <stop
         style="stop-color:#ff9e1a;stop-opacity:1"
         offset="0"
         id="stop5266" />
      <stop
         style="stop-color:#814e00;stop-opacity:1"
         offset="1"
         id="stop5268" />
    </linearGradient>
    <linearGradient
       inkscape:collect="always"
       id="linearGradient5216">
      <stop
         style="stop-color:#000000;stop-opacity:1"
         offset="0"
         id="stop5212" />
      <stop
         style="stop-color:#ffffff;stop-opacity:1"
         offset="1"
         id="stop5214" />
    </linearGradient>
    <linearGradient
       inkscape:collect="always"
       xlink:href="#linearGradient5216"
       id="linearGradient5220"
       x1="122.09918"
       y1="244.84492"
       x2="118.36297"
       y2="222.66154"
       gradientUnits="userSpaceOnUse"
       gradientTransform="translate(-17.071095,28.001315)" />
    <linearGradient
       gradientTransform="rotate(-81.91927,109.14549,147.04224)"
       inkscape:collect="always"
       xlink:href="#linearGradient5282"
       id="linearGradient5284-1"
       x1="73.56929"
       y1="180.18279"
       x2="80.427811"
       y2="190.37614"
       gradientUnits="userSpaceOnUse" />
    <linearGradient
       gradientTransform="matrix(-0.95461673,-0.29783705,-0.29783705,0.95461673,261.31694,35.868114)"
       inkscape:collect="always"
       xlink:href="#linearGradient5216"
       id="linearGradient5318-8"
       x1="96.165901"
       y1="165.27704"
       x2="82.37233"
       y2="156.61911"
       gradientUnits="userSpaceOnUse" />
    <linearGradient
       inkscape:collect="always"
       xlink:href="#linearGradient5396"
       id="linearGradient5398"
       x1="63.961341"
       y1="118.00925"
       x2="153.12589"
       y2="118.00925"
       gradientUnits="userSpaceOnUse" />
    <linearGradient
       inkscape:collect="always"
       xlink:href="#linearGradient5270"
       id="linearGradient956"
       x1="39.929523"
       y1="139.53383"
       x2="4.1802468"
       y2="159.94453"
       gradientUnits="userSpaceOnUse" />
    <radialGradient
       inkscape:collect="always"
       xlink:href="#linearGradient968"
       id="radialGradient974"
       gradientUnits="userSpaceOnUse"
       gradientTransform="matrix(0.60158667,0.01140782,-0.01126888,0.59425995,18.976269,44.855815)"
       cx="4.7440343"
       cy="168.77744"
       fx="4.7440343"
       fy="168.77744"
       r="2.6865693" />
    <radialGradient
       inkscape:collect="always"
       xlink:href="#linearGradient1027"
       id="radialGradient1029"
       cx="25.256971"
       cy="69.954536"
       fx="25.256971"
       fy="69.954536"
       r="20.713388"
       gradientUnits="userSpaceOnUse"
       gradientTransform="matrix(1.416129,0,0,1.416129,12.675471,6.1026424)" />
    <linearGradient
       inkscape:collect="always"
       xlink:href="#linearGradient968"
       id="linearGradient1043"
       x1="76.081108"
       y1="190.58632"
       x2="7.4754481"
       y2="211.43333"
       gradientUnits="userSpaceOnUse"
       gradientTransform="translate(63.023993,-6.66866)" />
    <linearGradient
       inkscape:collect="always"
       xlink:href="#linearGradient968"
       id="linearGradient1063"
       x1="122.87588"
       y1="161.31195"
       x2="100.68504"
       y2="162.63487"
       gradientUnits="userSpaceOnUse" />
    <radialGradient
       inkscape:collect="always"
       xlink:href="#linearGradient5270"
       id="radialGradient974-6"
       gradientUnits="userSpaceOnUse"
       gradientTransform="matrix(0.60158666,0.01140782,-0.01126888,0.59425995,109.96484,63.547981)"
       cx="4.7440343"
       cy="168.77744"
       fx="4.7440343"
       fy="168.77744"
       r="2.6865692" />
    <radialGradient
       inkscape:collect="always"
       xlink:href="#linearGradient5270"
       id="radialGradient1100"
       cx="112.17343"
       cy="191.92055"
       fx="112.17343"
       fy="191.92055"
       r="3.7949321"
       gradientTransform="matrix(1,0,0,1.3073377,0,-58.984421)"
       gradientUnits="userSpaceOnUse" />
  </defs>
  <sodipodi:namedview
     id="base"
     pagecolor="#ffffff"
     bordercolor="#666666"
     borderopacity="1.0"
     inkscape:pageopacity="0.0"
     inkscape:pageshadow="2"
     inkscape:zoom="0.35"
     inkscape:cx="-348.81"
     inkscape:cy="674.61779"
     inkscape:document-units="mm"
     inkscape:current-layer="layer1"
     showgrid="false"
     inkscape:window-width="1366"
     inkscape:window-height="705"
     inkscape:window-x="-8"
     inkscape:window-y="-8"
     inkscape:window-maximized="1" />
  <metadata
     id="metadata4560">
    <rdf:RDF>
      <cc:Work
         rdf:about="">
        <dc:format>image/svg+xml</dc:format>
        <dc:type
           rdf:resource="http://purl.org/dc/dcmitype/StillImage" />
        <dc:title />
      </cc:Work>
    </rdf:RDF>
  </metadata>
  <g
     inkscape:label="Capa 1"
     inkscape:groupmode="layer"
     id="layer1">
    <g
       id="g1011"
       transform="translate(-19.59262,1.55743)">
      <g
         id="g1006">
        <path
           style="fill:#f2d9ad;fill-opacity:1;stroke:#000000;stroke-width:1.398;stroke-linecap:butt;stroke-linejoin:miter;stroke-miterlimit:4;stroke-dasharray:none;stroke-opacity:1"
           d="m 140.34683,156.47549 c 9.97064,0.48988 12.97798,6.97814 20.41729,16.85548 29.83706,4.0339 12.43115,12.52209 -2.32857,8.28789 -9.26662,-6.16222 -11.48845,-8.22657 -18.59286,-17.04715 -1.46867,-1.71751 -1.11864,-6.75299 0.5041,-8.09621 z"
           id="path5175-7-9"
           inkscape:connector-curvature="0"
           sodipodi:nodetypes="ccccc" />
        <path
           style="fill:#c4c4c4;fill-opacity:1;stroke:#000000;stroke-width:1.398;stroke-linecap:butt;stroke-linejoin:miter;stroke-miterlimit:4;stroke-dasharray:none;stroke-opacity:1"
           d="m 140.34683,156.47549 c 9.97064,0.48988 12.97798,6.97814 20.41729,16.85548 3.23863,0.24503 6.85768,0.50735 10.95944,2.15553 -2.17371,2.52696 -2.20823,3.48925 -3.37887,7.271 -3.27001,-0.0291 -6.13742,0.31029 -9.90914,-1.13864 -9.26662,-6.16222 -11.48845,-8.22657 -18.59286,-17.04715 -1.46867,-1.71751 -1.11864,-6.75299 0.5041,-8.09621 z"
           id="path5175-7"
           inkscape:connector-curvature="0"
           sodipodi:nodetypes="cccccccc" />
      </g>
    </g>
    <path
       style="fill:url(#linearGradient5398);stroke:#000000;stroke-width:2.08084631;stroke-linecap:butt;stroke-linejoin:miter;stroke-miterlimit:4;stroke-dasharray:none;stroke-opacity:1;fill-opacity:1"
       d="m 68.64617,96.285518 c 1.448976,34.660802 -22.981329,59.307742 38.08628,61.425572 65.16094,2.25978 39.5161,-20.20632 44.00283,-57.44162 C 128.4952,64.761328 80.58956,78.556158 68.64617,96.285518 Z"
       id="path21"
       inkscape:connector-curvature="0"
       sodipodi:nodetypes="cscc" />
    <ellipse
       style="fill:#120903;fill-opacity:1;stroke:#000000;stroke-width:1.081;stroke-miterlimit:4;stroke-dasharray:none;stroke-opacity:1"
       id="path4534"
       cx="97.998177"
       cy="131.01065"
       rx="4.3214855"
       ry="7.7786746" />
    <ellipse
       style="fill:#000000;fill-opacity:1;stroke:#000000;stroke-width:1.081;stroke-miterlimit:4;stroke-dasharray:none;stroke-opacity:1"
       id="path4534-5"
       cx="135.31125"
       cy="130.9612"
       rx="4.3214855"
       ry="7.7786746" />
    <path
       style="fill:url(#linearGradient1043);fill-opacity:1;stroke:#000000;stroke-width:1.56500006;stroke-linecap:butt;stroke-linejoin:miter;stroke-miterlimit:4;stroke-dasharray:none;stroke-opacity:1"
       d="m 97.606916,158.6867 c -18.716969,19.35541 -25.253323,38.32058 -30.57388,63.4909 21.15807,10.19018 53.480574,6.75651 77.574984,2.6727 -8.58913,-19.15185 -21.7168,-46.26882 -23.85385,-66.81737 -8.86527,0.54577 -13.13821,0.7305 -23.147254,0.65377 z"
       id="path1035"
       inkscape:connector-curvature="0"
       sodipodi:nodetypes="ccccc" />
    <path
       style="fill:#cdcdcd;fill-opacity:1;stroke:#000000;stroke-width:1.36500001;stroke-linecap:butt;stroke-linejoin:miter;stroke-miterlimit:4;stroke-dasharray:none;stroke-opacity:1"
       d="m 118.33941,213.2026 c 6.64832,-1.96482 10.48581,-6.02552 13.04017,-7.55953 4.82344,11.72247 8.45062,33.46204 5.72894,35.72071 -2.71514,2.25323 -18.86082,-18.55162 -18.76911,-28.16118 z"
       id="path5241"
       inkscape:connector-curvature="0"
       sodipodi:nodetypes="ccsc" />
    <path
       style="fill:#cdcdcd;fill-opacity:1;stroke:#000000;stroke-width:1.36500001;stroke-linecap:butt;stroke-linejoin:miter;stroke-miterlimit:4;stroke-dasharray:none;stroke-opacity:1"
       d="m 95.126408,211.12985 c -6.64832,-1.96482 -10.48581,-6.02552 -13.04017,-7.55953 -4.82344,11.72247 -8.45062,33.46204 -5.72894,35.72071 2.71514,2.25323 18.86082,-18.55162 18.76911,-28.16118 z"
       id="path5241-2"
       inkscape:connector-curvature="0"
       sodipodi:nodetypes="ccsc" />
    <path
       style="fill:none;stroke:#000000;stroke-width:1.36500001;stroke-linecap:butt;stroke-linejoin:miter;stroke-miterlimit:4;stroke-dasharray:none;stroke-opacity:1"
       d="m 124.95068,140.81838 c -2.60759,4.18182 -10.26042,4.34651 -12.3808,-0.16995"
       id="path5171"
       inkscape:connector-curvature="0"
       sodipodi:nodetypes="cc" />
    <g
       inkscape:groupmode="layer"
       id="layer2"
       inkscape:label="Capa 2" />
    <g
       transform="rotate(63.156537,108.15342,225.92964)"
       id="g96"
       style="fill:#c4c4c4;fill-opacity:1">
      <path
         sodipodi:nodetypes="ccccc"
         inkscape:connector-curvature="0"
         id="path5175"
         d="m 43.394024,204.97584 c -6.703932,5.41771 -11.325929,13.01945 -17.538295,17.38161 -29.4825964,6.10732 -11.526514,13.35951 2.901554,8.10507 8.813744,-6.79418 13.376813,-8.82309 23.256483,-15.12233 -3.056628,-3.3574 -5.503697,-7.07984 -8.619742,-10.36435 z"
         style="fill:#c4c4c4;fill-opacity:1;stroke:#000000;stroke-width:1.398;stroke-linecap:butt;stroke-linejoin:miter;stroke-miterlimit:4;stroke-dasharray:none;stroke-opacity:1" />
    </g>
    <path
       style="fill:#c4c4c4;fill-opacity:1;stroke:#000000;stroke-width:2.08084631;stroke-linecap:butt;stroke-linejoin:miter;stroke-miterlimit:4;stroke-dasharray:none;stroke-opacity:1"
       d="m 97.94007,157.20968 c -5.261118,10.12939 -14.542463,41.50068 -18.392893,54.51236 18.43296,12.7397 49.374563,13.26424 66.103303,-1.06455 -18.83946,-20.05779 -22.23533,-35.3311 -24.89627,-52.62457 -6.1928,0.13767 -14.27533,-0.35127 -22.81414,-0.82324 z"
       id="path4555"
       inkscape:connector-curvature="0"
       sodipodi:nodetypes="ccccc" />
    <path
       style="fill:#3e2702;fill-opacity:1;stroke:#000000;stroke-width:1.36500001;stroke-linecap:butt;stroke-linejoin:miter;stroke-miterlimit:4;stroke-dasharray:none;stroke-opacity:1"
       d="m 76.639535,224.16905 7.817634,-1.13589 2.605879,5.74629 c -2.632058,3.90941 -4.828385,6.91252 -6.280833,8.55263 0.459624,1.38084 0.553604,2.11359 0.672921,3.25309 -2.998331,1.00507 -6.571553,0.71318 -8.891461,-0.80575 l 1.804069,-4.218 z"
       id="path5407"
       inkscape:connector-curvature="0"
       sodipodi:nodetypes="cccccccc" />
    <path
       style="fill:#3e2702;fill-opacity:1;stroke:#000000;stroke-width:1.36500001;stroke-linecap:butt;stroke-linejoin:miter;stroke-miterlimit:4;stroke-dasharray:none;stroke-opacity:1"
       d="m 136.63817,226.28577 -7.81763,-1.13589 -2.60588,5.74629 c 2.63206,3.90941 4.82839,6.91252 6.28083,8.55263 -0.45962,1.38084 -0.5536,2.11359 -0.67292,3.25309 2.99833,1.00507 6.57156,0.71318 8.89146,-0.80575 l -1.80406,-4.218 z"
       id="path5407-3"
       inkscape:connector-curvature="0"
       sodipodi:nodetypes="cccccccc" />
    <path
       style="fill:#e29d13;fill-opacity:1;stroke:#000000;stroke-width:2.06500006;stroke-linecap:butt;stroke-linejoin:miter;stroke-miterlimit:4;stroke-dasharray:none;stroke-opacity:1"
       d="m 63.610148,122.20573 c 1.516654,4.04401 4.011679,3.68535 6.949006,1.33634 0.11029,-8.89798 -0.386906,-15.74391 7.216277,-27.261487 C 103.34229,79.084698 127.66294,80.403981 150.73528,100.26947 161.80484,70.980827 91.043221,66.749005 75.904547,80.244413 58.394484,83.826375 59.591468,112.96303 63.610148,122.20573 Z"
       id="path903"
       inkscape:connector-curvature="0"
       sodipodi:nodetypes="cccccc" />
    <path
       style="fill:#e29d13;fill-opacity:1;stroke:#000000;stroke-width:1.36500001;stroke-linecap:butt;stroke-linejoin:miter;stroke-miterlimit:4;stroke-dasharray:none;stroke-opacity:1"
       d="M 162.97175,109.07315 C 130.98987,125.86793 127.94443,84.720316 77.775431,96.280583 132.73447,50.302358 142.64977,105.85817 162.97175,109.07315 Z"
       id="path5224"
       inkscape:connector-curvature="0"
       sodipodi:nodetypes="ccc" />
    <path
       style="fill:none;stroke:#000000;stroke-width:1.36500001;stroke-linecap:butt;stroke-linejoin:miter;stroke-miterlimit:4;stroke-dasharray:none;stroke-opacity:1"
       d="m 131.16366,119.09899 c 3.20011,-4.13486 8.73962,-3.12376 11.09169,2.6727"
       id="path4623-7"
       inkscape:connector-curvature="0"
       sodipodi:nodetypes="cc" />
    <path
       style="fill:none;stroke:#000000;stroke-width:1.36500001;stroke-linecap:butt;stroke-linejoin:miter;stroke-miterlimit:4;stroke-dasharray:none;stroke-opacity:1"
       d="m 101.59814,118.72815 c -3.200112,-4.13486 -8.739622,-3.12376 -11.091692,2.6727"
       id="path4623-7-2"
       inkscape:connector-curvature="0"
       sodipodi:nodetypes="cc" />
    <g
       id="g5468">
      <path
         sodipodi:nodetypes="ccccc"
         inkscape:connector-curvature="0"
         id="path5454"
         d="m 88.084544,184.98401 c 17.526116,5.00779 30.686236,4.51118 40.696016,1.01078 l 1.2905,3.80171 c -12.33891,4.61275 -27.32721,4.38684 -43.159586,-0.98002 z"
         style="fill:#3e2702;fill-opacity:1;stroke:#000000;stroke-width:1.06500006;stroke-linecap:butt;stroke-linejoin:miter;stroke-miterlimit:4;stroke-dasharray:none;stroke-opacity:1" />
      <path
         sodipodi:nodetypes="ccccc"
         inkscape:connector-curvature="0"
         id="path5456"
         d="m 112.21168,187.67039 -3.23085,3.36113 2.94737,4.96811 3.4239,-4.78792 z"
         style="fill:url(#radialGradient1100);fill-opacity:1;stroke:#000000;stroke-width:0.96499997;stroke-linecap:butt;stroke-linejoin:miter;stroke-miterlimit:4;stroke-dasharray:none;stroke-opacity:1" />
    </g>
    <circle
       style="opacity:1;fill:url(#radialGradient1029);fill-opacity:1;stroke:none;stroke-width:1.70501935;stroke-miterlimit:4;stroke-dasharray:none;stroke-opacity:1"
       id="path1021"
       cx="48.4426"
       cy="105.1673"
       r="29.33283" />
    <g
       id="g979"
       transform="translate(28.569805,-40.090305)">
      <path
         sodipodi:nodetypes="ccccccccccccc"
         inkscape:connector-curvature="0"
         id="path939"
         d="m 10.289202,130.7442 c 5.746854,3.94159 5.991589,8.44646 6.811439,12.74048 -6.962782,2.39211 -8.8660091,0.64458 -12.1869505,0.057 -2.7360024,7.26538 0.9545896,8.10417 3.2681507,10.31999 3.4738978,-4.34685 7.0423218,-5.13192 10.4994888,-5.9867 6.593182,14.32159 10.340878,29.45922 13.018879,45.20451 l 7.72002,-3.06966 c -7.406408,-14.1962 -12.813788,-28.71991 -16.340754,-43.26878 4.246003,-1.41658 7.682409,-1.545 11.247572,-1.55383 1.96192,-4.70644 0.120406,-7.27345 -3.604203,-8.78122 -2.530158,3.01652 -5.130907,5.92715 -9.754663,5.80327 -1.822503,-4.86783 -2.047613,-9.33476 -1.019288,-14.2026 -4.35115,-0.99572 -6.731611,-0.18018 -9.659691,2.73754 z"
         style="fill:url(#linearGradient956);fill-opacity:1;stroke:#000000;stroke-width:1.76499999;stroke-linecap:butt;stroke-linejoin:miter;stroke-miterlimit:4;stroke-dasharray:none;stroke-opacity:1" />
      <circle
         r="9.0203466"
         cy="144.72319"
         cx="19.978397"
         id="path960"
         style="opacity:1;fill:none;fill-opacity:1;stroke:#000000;stroke-width:1.76499999;stroke-miterlimit:4;stroke-dasharray:none;stroke-opacity:1" />
      <circle
         r="2.0698826"
         cx="19.928284"
         cy="145.20761"
         id="path962"
         style="opacity:1;fill:url(#radialGradient974);fill-opacity:1;stroke:#000000;stroke-width:0.80313861;stroke-miterlimit:4;stroke-dasharray:none;stroke-opacity:1" />
    </g>
    <path
       style="fill:#f2d9ad;fill-opacity:1;stroke:#000000;stroke-width:1.204;stroke-linecap:butt;stroke-linejoin:miter;stroke-miterlimit:4;stroke-dasharray:none;stroke-opacity:1"
       d="m 59.851155,145.50805 c -2.415151,1.03505 -3.802562,-7.32645 -0.733171,-6.64166 2.997506,0.66873 4.61466,4.83029 0.733171,6.64166 z"
       id="path1013"
       inkscape:connector-curvature="0"
       sodipodi:nodetypes="csc" />
    <path
       style="fill:url(#linearGradient1063);fill-opacity:1;stroke:#000000;stroke-width:1.36500001;stroke-linecap:butt;stroke-linejoin:miter;stroke-miterlimit:4;stroke-dasharray:none;stroke-opacity:1"
       d="m 97.94007,157.20968 12.90145,7.12067 9.91269,-6.29743 z"
       id="path1055"
       inkscape:connector-curvature="0"
       sodipodi:nodetypes="cccc" />
    <circle
       r="2.0698826"
       cx="110.91685"
       cy="163.89978"
       id="path962-6"
       style="opacity:1;fill:url(#radialGradient974-6);fill-opacity:1.0;stroke:#000000;stroke-width:0.80313861;stroke-miterlimit:4;stroke-dasharray:none;stroke-opacity:1" />
  </g>
</svg>
